<svg id="cog_vector" data-name="cog vector" xmlns="http://www.w3.org/2000/svg" viewBox="0 0 3746.67 3745.78"><defs><style>.cls-1{fill:none;stroke:#000;stroke-miterlimit:10;stroke-width:650px;}</style></defs><g id="opposing_cogs_4" data-name="opposing cogs 4"><path d="M2847.49,3613.93a1102.36,1102.36,0,0,1-593.46.72l0,777.51a43.64,43.64,0,0,0,43.64,43.64l506.18,0a43.65,43.65,0,0,0,43.64-43.64Z" transform="translate(-677.35 -690.02)"/><path d="M2253.9,1501.34a1102.22,1102.22,0,0,1,593.45.64l0-768.33A43.63,43.63,0,0,0,2803.66,690l-506.18,0a43.63,43.63,0,0,0-43.63,43.64Z" transform="translate(-677.35 -690.02)"/></g><g id="opposing_cogs_3" data-name="opposing cogs 3"><path d="M2015.28,3514.78a1102.28,1102.28,0,0,1-419.22-420.05l-551,548.61a43.65,43.65,0,0,0-.13,61.71l357.16,358.69a43.63,43.63,0,0,0,61.71.13Z" transform="translate(-677.35 -690.02)"/><path d="M3093.58,1603.59a1102.28,1102.28,0,0,1,418.26,421l544.45-542.12a43.65,43.65,0,0,0,.13-61.71l-357.16-358.69a43.63,43.63,0,0,0-61.71-.13Z" transform="translate(-677.35 -690.02)"/></g><g id="opposing_cogs_2" data-name="opposing cogs 2"><path d="M1499.11,2857.7a1102.26,1102.26,0,0,1,.41-593.46L722,2262.81a43.63,43.63,0,0,0-43.72,43.55l-.94,506.18a43.65,43.65,0,0,0,43.56,43.72Z" transform="translate(-677.35 -690.02)"/><path d="M3612.83,2268.14a1102.32,1102.32,0,0,1-1.78,593.45l768.33,1.42a43.62,43.62,0,0,0,43.71-43.55l.94-506.18a43.64,43.64,0,0,0-43.56-43.72Z" transform="translate(-677.35 -690.02)"/></g><g id="opposing_cogs_1" data-name="opposing cogs 1"><path d="M1597.68,2029.53a1102.28,1102.28,0,0,1,419.15-420.12L1467,1059.63a43.62,43.62,0,0,0-61.71,0l-357.92,357.92a43.64,43.64,0,0,0,0,61.71Z" transform="translate(-677.35 -690.02)"/><path d="M3511.17,3103.75a1102.28,1102.28,0,0,1-420.12,419.15l543.29,543.29a43.64,43.64,0,0,0,61.71,0L4054,3708.27a43.62,43.62,0,0,0,0-61.71Z" transform="translate(-677.35 -690.02)"/></g><circle id="circle" class="cls-1" cx="1877.7" cy="1875.51" r="1097.02"/></svg>